<svg width="1600" height="794" viewBox="0 0 1600 794" fill="none" xmlns="http://www.w3.org/2000/svg">
<rect opacity="0.08" width="1600" height="794" fill="url(#paint0_linear_356_6925)"/>
<g opacity="0.3">
<mask id="mask0_356_6925" style="mask-type:alpha" maskUnits="userSpaceOnUse" x="36" y="530" width="62" height="47">
<path fill-rule="evenodd" clip-rule="evenodd" d="M36.9307 553.499C36.9307 540.798 46.032 530.5 57.2621 530.5C68.4926 530.5 97.9307 538.252 97.9307 553.499C97.9307 568.745 68.4926 576.5 57.2621 576.5C46.032 576.5 36.9307 566.202 36.9307 553.499" fill="white"/>
</mask>
<g mask="url(#mask0_356_6925)">
<path fill-rule="evenodd" clip-rule="evenodd" d="M141.931 547.882L141.344 547.291L55.2568 633.909L55.8437 634.5L141.931 547.882ZM139.192 545.126L139.778 545.716L53.6915 632.335L53.1046 631.744L139.192 545.126ZM137.626 543.551L137.039 542.96L50.9524 629.579L51.5394 630.169L137.626 543.551ZM134.887 540.795L135.474 541.385L49.3872 628.004L48.8002 627.413L134.887 540.795ZM133.322 539.22L132.735 538.629L46.6481 625.248L47.235 625.838L133.322 539.22ZM130.583 536.464L131.17 537.054L45.0828 623.673L44.4959 623.082L130.583 536.464ZM129.018 534.889L128.431 534.298L42.3437 620.917L42.9307 621.507L129.018 534.889ZM126.278 532.133L126.865 532.723L40.7785 619.342L40.1915 618.751L126.278 532.133ZM124.713 530.558L124.126 529.967L38.0394 616.586L38.6263 617.176L124.713 530.558ZM121.974 527.802L122.561 528.393L36.4741 615.011L35.8872 614.42L121.974 527.802ZM120.409 526.227L119.822 525.636L33.735 612.255L34.322 612.845L120.409 526.227ZM117.67 523.471L118.257 524.062L32.1698 610.68L31.5828 610.089L117.67 523.471ZM116.105 521.896L115.518 521.306L29.4307 607.924L30.0176 608.514L116.105 521.896ZM113.365 519.14L113.952 519.731L27.8654 606.349L27.2785 605.758L113.365 519.14ZM111.8 517.565L111.213 516.975L25.1263 603.593L25.7133 604.184L111.8 517.565ZM109.061 514.809L109.648 515.4L23.5611 602.018L22.9741 601.428L109.061 514.809ZM107.496 513.234L106.909 512.644L20.822 599.262L21.4089 599.853L107.496 513.234ZM104.757 510.478L105.344 511.069L19.2568 597.687L18.6698 597.097L104.757 510.478ZM103.192 508.903L102.605 508.313L16.5176 594.931L17.1046 595.522L103.192 508.903ZM100.452 506.147L101.039 506.738L14.9524 593.356L14.3654 592.766L100.452 506.147ZM98.8872 504.572L98.3002 503.982L12.2133 590.6L12.8002 591.191L98.8872 504.572ZM96.1481 501.816L96.735 502.407L10.6481 589.025L10.0611 588.435L96.1481 501.816ZM94.5828 500.242L93.9959 499.651L7.90892 586.269L8.49588 586.86L94.5828 500.242ZM91.8437 497.486L92.4307 498.076L6.34372 584.694L5.75674 584.104L91.8437 497.486ZM90.2785 495.911L89.6915 495.32L3.60457 581.938L4.19154 582.529L90.2785 495.911ZM87.5394 493.155L88.1263 493.745L2.03937 580.364L1.45241 579.773L87.5394 493.155ZM85.9741 491.58L85.3872 490.989L-0.699768 577.607L-0.112808 578.198L85.9741 491.58ZM83.235 488.824L83.822 489.414L-2.26498 576.033L-2.85194 575.442L83.235 488.824ZM81.6698 487.249L81.0828 486.658L-5.00412 573.277L-4.41716 573.867L81.6698 487.249ZM78.9307 484.493L79.5176 485.083L-6.56934 571.702L-7.1563 571.111L78.9307 484.493ZM77.3654 482.918L76.7785 482.327L-9.30847 568.946L-8.72151 569.536L77.3654 482.918ZM74.6263 480.162L75.2133 480.752L-10.8737 567.371L-11.4606 566.78L74.6263 480.162ZM73.0611 478.587L72.4741 477.996L-13.6128 564.615L-13.0258 565.205L73.0611 478.587ZM70.322 475.831L70.9089 476.421L-15.178 563.04L-15.765 562.449L70.322 475.831ZM68.7568 474.256L68.1698 473.665L-17.9172 560.284L-17.3302 560.874L68.7568 474.256ZM66.6046 472.091L66.0176 471.5L-20.0693 558.118L-19.4824 558.709L66.6046 472.091Z" fill="url(#paint1_linear_356_6925)"/>
</g>
<mask id="mask1_356_6925" style="mask-type:alpha" maskUnits="userSpaceOnUse" x="152" y="322" width="43" height="55">
<path fill-rule="evenodd" clip-rule="evenodd" d="M178.897 323.077C189.831 326.007 196.573 336.309 193.952 346.089C191.332 355.87 177.788 379.72 164.662 376.203C151.535 372.686 151.729 345.259 154.349 335.478C156.97 325.697 167.96 320.146 178.897 323.077" fill="white"/>
</mask>
<g mask="url(#mask1_356_6925)">
<path fill-rule="evenodd" clip-rule="evenodd" d="M158.813 415.839L159.461 415.465L104.6 320.443L103.952 320.817L158.813 415.839ZM161.836 414.093L161.188 414.467L106.328 319.446L106.976 319.072L161.836 414.093ZM163.564 413.096L164.212 412.722L109.351 317.7L108.703 318.074L163.564 413.096ZM166.587 411.35L165.939 411.724L111.079 316.703L111.727 316.329L166.587 411.35ZM168.315 410.353L168.963 409.979L114.102 314.957L113.454 315.331L168.315 410.353ZM171.338 408.607L170.69 408.981L115.83 313.96L116.478 313.586L171.338 408.607ZM173.066 407.61L173.714 407.236L118.853 312.214L118.205 312.588L173.066 407.61ZM176.089 405.864L175.441 406.238L120.581 311.217L121.229 310.843L176.089 405.864ZM177.817 404.867L178.465 404.493L123.604 309.471L122.956 309.845L177.817 404.867ZM180.84 403.121L180.192 403.495L125.332 308.474L125.98 308.1L180.84 403.121ZM182.568 402.124L183.216 401.749L128.355 306.728L127.707 307.102L182.568 402.124ZM185.591 400.378L184.944 400.752L130.083 305.731L130.731 305.357L185.591 400.378ZM187.319 399.381L187.967 399.006L133.106 303.985L132.459 304.359L187.319 399.381ZM190.342 397.635L189.695 398.009L134.834 302.988L135.482 302.614L190.342 397.635ZM192.07 396.637L192.718 396.263L137.857 301.242L137.21 301.616L192.07 396.637ZM195.094 394.892L194.446 395.266L139.585 300.245L140.233 299.871L195.094 394.892ZM196.821 393.894L197.469 393.52L142.609 298.499L141.961 298.873L196.821 393.894ZM199.845 392.149L199.197 392.523L144.336 297.502L144.984 297.128L199.845 392.149ZM201.572 391.151L202.22 390.777L147.36 295.756L146.712 296.13L201.572 391.151ZM204.596 389.406L203.948 389.78L149.087 294.759L149.735 294.385L204.596 389.406ZM206.323 388.408L206.971 388.034L152.111 293.013L151.463 293.387L206.323 388.408ZM209.347 386.663L208.699 387.037L153.838 292.016L154.486 291.642L209.347 386.663ZM211.074 385.665L211.722 385.291L156.862 290.27L156.214 290.644L211.074 385.665ZM214.098 383.92L213.45 384.294L158.589 289.273L159.237 288.899L214.098 383.92ZM215.825 382.922L216.473 382.548L161.613 287.527L160.965 287.901L215.825 382.922ZM218.849 381.177L218.201 381.551L163.34 286.53L163.988 286.156L218.849 381.177ZM220.577 380.179L221.224 379.805L166.364 284.784L165.716 285.158L220.577 380.179ZM223.6 378.434L222.952 378.808L168.092 283.787L168.739 283.412L223.6 378.434ZM225.328 377.436L225.975 377.062L171.115 282.041L170.467 282.415L225.328 377.436ZM228.351 375.691L227.703 376.065L172.843 281.044L173.49 280.669L228.351 375.691ZM230.079 374.693L230.727 374.319L175.866 279.298L175.218 279.672L230.079 374.693ZM233.102 372.948L232.454 373.322L177.594 278.3L178.242 277.926L233.102 372.948ZM234.83 371.95L235.478 371.576L180.617 276.555L179.969 276.929L234.83 371.95ZM237.853 370.205L237.205 370.579L182.345 275.557L182.993 275.183L237.853 370.205ZM239.581 369.207L240.229 368.833L185.368 273.812L184.72 274.186L239.581 369.207ZM241.956 367.836L242.604 367.462L187.744 272.44L187.096 272.814L241.956 367.836Z" fill="url(#paint2_linear_356_6925)"/>
</g>
<mask id="mask2_356_6925" style="mask-type:alpha" maskUnits="userSpaceOnUse" x="36" y="245" width="23" height="28">
<path fill-rule="evenodd" clip-rule="evenodd" d="M44.9762 245.477C39.3756 246.978 35.9159 252.23 37.25 257.209C38.5842 262.189 45.5 274.325 52.2232 272.523C58.9463 270.722 58.8687 256.753 57.5345 251.774C56.2003 246.795 50.5781 243.976 44.9762 245.477" fill="white"/>
</mask>
<g mask="url(#mask2_356_6925)">
<path fill-rule="evenodd" clip-rule="evenodd" d="M54.8331 291.35L54.5092 291.162L81.9395 243.652L82.2634 243.839L54.8331 291.35ZM53.3214 290.477L53.6454 290.664L81.0757 243.153L80.7517 242.966L53.3214 290.477ZM52.4576 289.978L52.1337 289.791L79.564 242.28L79.8879 242.467L52.4576 289.978ZM50.9459 289.105L51.2698 289.292L78.7001 241.782L78.3762 241.595L50.9459 289.105ZM50.0821 288.606L49.7581 288.419L77.1884 240.909L77.5124 241.096L50.0821 288.606ZM48.5704 287.734L48.8943 287.921L76.3246 240.41L76.0007 240.223L48.5704 287.734ZM47.7065 287.235L47.3826 287.048L74.8129 239.537L75.1368 239.724L47.7065 287.235ZM46.1948 286.362L46.5188 286.549L73.9491 239.039L73.6251 238.852L46.1948 286.362ZM45.331 285.863L45.0071 285.676L72.4374 238.166L72.7613 238.353L45.331 285.863ZM43.8193 284.991L44.1433 285.178L71.5735 237.667L71.2496 237.48L43.8193 284.991ZM42.9555 284.492L42.6316 284.305L70.0618 236.794L70.3858 236.981L42.9555 284.492ZM41.4438 283.619L41.7677 283.806L69.198 236.296L68.8741 236.109L41.4438 283.619ZM40.58 283.12L40.256 282.933L67.6863 235.423L68.0102 235.61L40.58 283.12ZM39.0683 282.248L39.3922 282.435L66.8225 234.924L66.4985 234.737L39.0683 282.248ZM38.2044 281.749L37.8805 281.562L65.3108 234.051L65.6347 234.238L38.2044 281.749ZM36.6927 280.876L37.0167 281.063L64.4469 233.553L64.123 233.366L36.6927 280.876ZM35.8289 280.377L35.505 280.19L62.9352 232.68L63.2592 232.867L35.8289 280.377ZM34.3172 279.505L34.6411 279.692L62.0714 232.181L61.7475 231.994L34.3172 279.505ZM33.4534 279.006L33.1294 278.819L60.5597 231.308L60.8836 231.495L33.4534 279.006ZM31.9417 278.133L32.2656 278.32L59.6959 230.809L59.3719 230.622L31.9417 278.133ZM31.0778 277.634L30.7539 277.447L58.1842 229.937L58.5081 230.124L31.0778 277.634ZM29.5661 276.762L29.8901 276.949L57.3203 229.438L56.9964 229.251L29.5661 276.762ZM28.7023 276.263L28.3784 276.076L55.8086 228.565L56.1326 228.752L28.7023 276.263ZM27.1906 275.39L27.5145 275.577L54.9448 228.066L54.6209 227.879L27.1906 275.39ZM26.3268 274.891L26.0028 274.704L53.4331 227.194L53.757 227.381L26.3268 274.891ZM24.8151 274.019L25.139 274.206L52.5693 226.695L52.2453 226.508L24.8151 274.019ZM23.9512 273.52L23.6273 273.333L51.0576 225.822L51.3815 226.009L23.9512 273.52ZM22.4395 272.647L22.7635 272.834L50.1937 225.323L49.8698 225.136L22.4395 272.647ZM21.5757 272.148L21.2518 271.961L48.682 224.451L49.006 224.638L21.5757 272.148ZM20.064 271.276L20.3879 271.463L47.8182 223.952L47.4943 223.765L20.064 271.276ZM19.2002 270.777L18.8762 270.59L46.3065 223.079L46.6304 223.266L19.2002 270.777ZM17.6885 269.904L18.0124 270.091L45.4427 222.58L45.1187 222.393L17.6885 269.904ZM16.8246 269.405L16.5007 269.218L43.931 221.708L44.2549 221.895L16.8246 269.405ZM15.3129 268.533L15.6369 268.72L43.0671 221.209L42.7432 221.022L15.3129 268.533ZM14.4491 268.034L14.1252 267.847L41.5554 220.336L41.8794 220.523L14.4491 268.034ZM13.2613 267.348L12.9374 267.161L40.3677 219.65L40.6916 219.837L13.2613 267.348Z" fill="url(#paint3_linear_356_6925)"/>
</g>
<circle opacity="0.8" cx="304.931" cy="447.5" r="7.5" stroke="url(#paint4_linear_356_6925)"/>
<circle opacity="0.8" cx="70.9307" cy="410.5" r="7.5" fill="url(#paint5_linear_356_6925)"/>
<circle opacity="0.8" cx="198.431" cy="188" r="5" stroke="url(#paint6_linear_356_6925)"/>
</g>
<g opacity="0.3">
<mask id="mask3_356_6925" style="mask-type:alpha" maskUnits="userSpaceOnUse" x="1502" y="530" width="62" height="47">
<path fill-rule="evenodd" clip-rule="evenodd" d="M1563.33 553.499C1563.33 540.798 1554.23 530.5 1543 530.5C1531.77 530.5 1502.33 538.252 1502.33 553.499C1502.33 568.745 1531.77 576.5 1543 576.5C1554.23 576.5 1563.33 566.202 1563.33 553.499" fill="white"/>
</mask>
<g mask="url(#mask3_356_6925)">
<path fill-rule="evenodd" clip-rule="evenodd" d="M1458.33 547.882L1458.92 547.291L1545.01 633.909L1544.42 634.5L1458.33 547.882ZM1461.07 545.126L1460.49 545.716L1546.57 632.335L1547.16 631.744L1461.07 545.126ZM1462.64 543.551L1463.23 542.96L1549.31 629.579L1548.73 630.169L1462.64 543.551ZM1465.38 540.795L1464.79 541.385L1550.88 628.004L1551.46 627.413L1465.38 540.795ZM1466.94 539.22L1467.53 538.629L1553.62 625.248L1553.03 625.838L1466.94 539.22ZM1469.68 536.464L1469.1 537.054L1555.18 623.673L1555.77 623.082L1469.68 536.464ZM1471.25 534.889L1471.83 534.298L1557.92 620.917L1557.33 621.507L1471.25 534.889ZM1473.99 532.133L1473.4 532.723L1559.49 619.342L1560.07 618.751L1473.99 532.133ZM1475.55 530.558L1476.14 529.967L1562.23 616.586L1561.64 617.176L1475.55 530.558ZM1478.29 527.802L1477.7 528.393L1563.79 615.011L1564.38 614.42L1478.29 527.802ZM1479.86 526.227L1480.44 525.636L1566.53 612.255L1565.94 612.845L1479.86 526.227ZM1482.6 523.471L1482.01 524.062L1568.1 610.68L1568.68 610.089L1482.6 523.471ZM1484.16 521.896L1484.75 521.306L1570.83 607.924L1570.25 608.514L1484.16 521.896ZM1486.9 519.14L1486.31 519.731L1572.4 606.349L1572.99 605.758L1486.9 519.14ZM1488.46 517.565L1489.05 516.975L1575.14 603.593L1574.55 604.184L1488.46 517.565ZM1491.2 514.809L1490.62 515.4L1576.7 602.018L1577.29 601.428L1491.2 514.809ZM1492.77 513.234L1493.36 512.644L1579.44 599.262L1578.86 599.853L1492.77 513.234ZM1495.51 510.478L1494.92 511.069L1581.01 597.687L1581.6 597.097L1495.51 510.478ZM1497.07 508.903L1497.66 508.313L1583.75 594.931L1583.16 595.522L1497.07 508.903ZM1499.81 506.147L1499.23 506.738L1585.31 593.356L1585.9 592.766L1499.81 506.147ZM1501.38 504.572L1501.96 503.982L1588.05 590.6L1587.46 591.191L1501.38 504.572ZM1504.12 501.816L1503.53 502.407L1589.62 589.025L1590.2 588.435L1504.12 501.816ZM1505.68 500.242L1506.27 499.651L1592.36 586.269L1591.77 586.86L1505.68 500.242ZM1508.42 497.486L1507.83 498.076L1593.92 584.694L1594.51 584.104L1508.42 497.486ZM1509.99 495.911L1510.57 495.32L1596.66 581.938L1596.07 582.529L1509.99 495.911ZM1512.73 493.155L1512.14 493.745L1598.23 580.364L1598.81 579.773L1512.73 493.155ZM1514.29 491.58L1514.88 490.989L1600.96 577.607L1600.38 578.198L1514.29 491.58ZM1517.03 488.824L1516.44 489.414L1602.53 576.033L1603.12 575.442L1517.03 488.824ZM1518.6 487.249L1519.18 486.658L1605.27 573.277L1604.68 573.867L1518.6 487.249ZM1521.33 484.493L1520.75 485.083L1606.83 571.702L1607.42 571.111L1521.33 484.493ZM1522.9 482.918L1523.49 482.327L1609.57 568.946L1608.99 569.536L1522.9 482.918ZM1525.64 480.162L1525.05 480.752L1611.14 567.371L1611.73 566.78L1525.64 480.162ZM1527.2 478.587L1527.79 477.996L1613.88 564.615L1613.29 565.205L1527.2 478.587ZM1529.94 475.831L1529.36 476.421L1615.44 563.04L1616.03 562.449L1529.94 475.831ZM1531.51 474.256L1532.1 473.665L1618.18 560.284L1617.6 560.874L1531.51 474.256ZM1533.66 472.091L1534.25 471.5L1620.33 558.118L1619.75 558.709L1533.66 472.091Z" fill="url(#paint7_linear_356_6925)"/>
</g>
<mask id="mask4_356_6925" style="mask-type:alpha" maskUnits="userSpaceOnUse" x="1405" y="322" width="43" height="55">
<path fill-rule="evenodd" clip-rule="evenodd" d="M1421.37 323.077C1410.43 326.007 1403.69 336.309 1406.31 346.089C1408.93 355.87 1422.48 379.72 1435.6 376.203C1448.73 372.686 1448.54 345.259 1445.92 335.478C1443.3 325.697 1432.31 320.146 1421.37 323.077" fill="white"/>
</mask>
<g mask="url(#mask4_356_6925)">
<path fill-rule="evenodd" clip-rule="evenodd" d="M1441.45 415.839L1440.8 415.465L1495.67 320.443L1496.31 320.817L1441.45 415.839ZM1438.43 414.093L1439.08 414.467L1493.94 319.446L1493.29 319.072L1438.43 414.093ZM1436.7 413.096L1436.05 412.722L1490.91 317.7L1491.56 318.074L1436.7 413.096ZM1433.68 411.35L1434.33 411.724L1489.19 316.703L1488.54 316.329L1433.68 411.35ZM1431.95 410.353L1431.3 409.979L1486.16 314.957L1486.81 315.331L1431.95 410.353ZM1428.93 408.607L1429.57 408.981L1484.44 313.96L1483.79 313.586L1428.93 408.607ZM1427.2 407.61L1426.55 407.236L1481.41 312.214L1482.06 312.588L1427.2 407.61ZM1424.18 405.864L1424.82 406.238L1479.68 311.217L1479.04 310.843L1424.18 405.864ZM1422.45 404.867L1421.8 404.493L1476.66 309.471L1477.31 309.845L1422.45 404.867ZM1419.42 403.121L1420.07 403.495L1474.93 308.474L1474.29 308.1L1419.42 403.121ZM1417.7 402.124L1417.05 401.749L1471.91 306.728L1472.56 307.102L1417.7 402.124ZM1414.67 400.378L1415.32 400.752L1470.18 305.731L1469.53 305.357L1414.67 400.378ZM1412.95 399.381L1412.3 399.006L1467.16 303.985L1467.81 304.359L1412.95 399.381ZM1409.92 397.635L1410.57 398.009L1465.43 302.988L1464.78 302.614L1409.92 397.635ZM1408.19 396.637L1407.55 396.263L1462.41 301.242L1463.06 301.616L1408.19 396.637ZM1405.17 394.892L1405.82 395.266L1460.68 300.245L1460.03 299.871L1405.17 394.892ZM1403.44 393.894L1402.8 393.52L1457.66 298.499L1458.3 298.873L1403.44 393.894ZM1400.42 392.149L1401.07 392.523L1455.93 297.502L1455.28 297.128L1400.42 392.149ZM1398.69 391.151L1398.04 390.777L1452.91 295.756L1453.55 296.13L1398.69 391.151ZM1395.67 389.406L1396.32 389.78L1451.18 294.759L1450.53 294.385L1395.67 389.406ZM1393.94 388.408L1393.29 388.034L1448.15 293.013L1448.8 293.387L1393.94 388.408ZM1390.92 386.663L1391.57 387.037L1446.43 292.016L1445.78 291.642L1390.92 386.663ZM1389.19 385.665L1388.54 385.291L1443.4 290.27L1444.05 290.644L1389.19 385.665ZM1386.17 383.92L1386.82 384.294L1441.68 289.273L1441.03 288.899L1386.17 383.92ZM1384.44 382.922L1383.79 382.548L1438.65 287.527L1439.3 287.901L1384.44 382.922ZM1381.42 381.177L1382.06 381.551L1436.92 286.53L1436.28 286.156L1381.42 381.177ZM1379.69 380.179L1379.04 379.805L1433.9 284.784L1434.55 285.158L1379.69 380.179ZM1376.67 378.434L1377.31 378.808L1432.17 283.787L1431.53 283.412L1376.67 378.434ZM1374.94 377.436L1374.29 377.062L1429.15 282.041L1429.8 282.415L1374.94 377.436ZM1371.91 375.691L1372.56 376.065L1427.42 281.044L1426.77 280.669L1371.91 375.691ZM1370.19 374.693L1369.54 374.319L1424.4 279.298L1425.05 279.672L1370.19 374.693ZM1367.16 372.948L1367.81 373.322L1422.67 278.3L1422.02 277.926L1367.16 372.948ZM1365.44 371.95L1364.79 371.576L1419.65 276.555L1420.3 276.929L1365.44 371.95ZM1362.41 370.205L1363.06 370.579L1417.92 275.557L1417.27 275.183L1362.41 370.205ZM1360.68 369.207L1360.04 368.833L1414.9 273.812L1415.54 274.186L1360.68 369.207ZM1358.31 367.836L1357.66 367.462L1412.52 272.44L1413.17 272.814L1358.31 367.836Z" fill="url(#paint8_linear_356_6925)"/>
</g>
<mask id="mask5_356_6925" style="mask-type:alpha" maskUnits="userSpaceOnUse" x="1542" y="245" width="22" height="28">
<path fill-rule="evenodd" clip-rule="evenodd" d="M1555.29 245.477C1560.89 246.978 1564.35 252.23 1563.02 257.209C1561.68 262.189 1554.77 274.325 1548.04 272.523C1541.32 270.722 1541.4 256.753 1542.73 251.774C1544.06 246.795 1549.69 243.976 1555.29 245.477" fill="white"/>
</mask>
<g mask="url(#mask5_356_6925)">
<path fill-rule="evenodd" clip-rule="evenodd" d="M1545.43 291.35L1545.76 291.162L1518.33 243.652L1518 243.839L1545.43 291.35ZM1546.94 290.477L1546.62 290.664L1519.19 243.153L1519.51 242.966L1546.94 290.477ZM1547.81 289.978L1548.13 289.791L1520.7 242.28L1520.38 242.467L1547.81 289.978ZM1549.32 289.105L1549 289.292L1521.57 241.782L1521.89 241.595L1549.32 289.105ZM1550.18 288.606L1550.51 288.419L1523.08 240.909L1522.75 241.096L1550.18 288.606ZM1551.69 287.734L1551.37 287.921L1523.94 240.41L1524.26 240.223L1551.69 287.734ZM1552.56 287.235L1552.88 287.048L1525.45 239.537L1525.13 239.724L1552.56 287.235ZM1554.07 286.362L1553.75 286.549L1526.32 239.039L1526.64 238.852L1554.07 286.362ZM1554.93 285.863L1555.26 285.676L1527.83 238.166L1527.5 238.353L1554.93 285.863ZM1556.45 284.991L1556.12 285.178L1528.69 237.667L1529.02 237.48L1556.45 284.991ZM1557.31 284.492L1557.63 284.305L1530.2 236.794L1529.88 236.981L1557.31 284.492ZM1558.82 283.619L1558.5 283.806L1531.07 236.296L1531.39 236.109L1558.82 283.619ZM1559.69 283.12L1560.01 282.933L1532.58 235.423L1532.25 235.61L1559.69 283.12ZM1561.2 282.248L1560.87 282.435L1533.44 234.924L1533.77 234.737L1561.2 282.248ZM1562.06 281.749L1562.38 281.562L1534.95 234.051L1534.63 234.238L1562.06 281.749ZM1563.57 280.876L1563.25 281.063L1535.82 233.553L1536.14 233.366L1563.57 280.876ZM1564.44 280.377L1564.76 280.19L1537.33 232.68L1537.01 232.867L1564.44 280.377ZM1565.95 279.505L1565.62 279.692L1538.19 232.181L1538.52 231.994L1565.95 279.505ZM1566.81 279.006L1567.14 278.819L1539.71 231.308L1539.38 231.495L1566.81 279.006ZM1568.32 278.133L1568 278.32L1540.57 230.809L1540.89 230.622L1568.32 278.133ZM1569.19 277.634L1569.51 277.447L1542.08 229.937L1541.76 230.124L1569.19 277.634ZM1570.7 276.762L1570.38 276.949L1542.94 229.438L1543.27 229.251L1570.7 276.762ZM1571.56 276.263L1571.89 276.076L1544.46 228.565L1544.13 228.752L1571.56 276.263ZM1573.07 275.39L1572.75 275.577L1545.32 228.066L1545.64 227.879L1573.07 275.39ZM1573.94 274.891L1574.26 274.704L1546.83 227.194L1546.51 227.381L1573.94 274.891ZM1575.45 274.019L1575.13 274.206L1547.7 226.695L1548.02 226.508L1575.45 274.019ZM1576.31 273.52L1576.64 273.333L1549.21 225.822L1548.88 226.009L1576.31 273.52ZM1577.83 272.647L1577.5 272.834L1550.07 225.323L1550.4 225.136L1577.83 272.647ZM1578.69 272.148L1579.01 271.961L1551.58 224.451L1551.26 224.638L1578.69 272.148ZM1580.2 271.276L1579.88 271.463L1552.45 223.952L1552.77 223.765L1580.2 271.276ZM1581.06 270.777L1581.39 270.59L1553.96 223.079L1553.63 223.266L1581.06 270.777ZM1582.58 269.904L1582.25 270.091L1554.82 222.58L1555.15 222.393L1582.58 269.904ZM1583.44 269.405L1583.76 269.218L1556.33 221.708L1556.01 221.895L1583.44 269.405ZM1584.95 268.533L1584.63 268.72L1557.2 221.209L1557.52 221.022L1584.95 268.533ZM1585.82 268.034L1586.14 267.847L1558.71 220.336L1558.39 220.523L1585.82 268.034ZM1587 267.348L1587.33 267.161L1559.9 219.65L1559.57 219.837L1587 267.348Z" fill="url(#paint9_linear_356_6925)"/>
</g>
<circle opacity="0.8" r="7.5" transform="matrix(-1 0 0 1 1295.33 447.5)" stroke="url(#paint10_linear_356_6925)"/>
<circle opacity="0.8" r="7.5" transform="matrix(-1 0 0 1 1529.33 410.5)" fill="url(#paint11_linear_356_6925)"/>
<circle opacity="0.8" r="5" transform="matrix(-1 0 0 1 1401.83 188)" stroke="url(#paint12_linear_356_6925)"/>
</g>
<defs>
<linearGradient id="paint0_linear_356_6925" x1="0" y1="0" x2="1659.92" y2="538.696" gradientUnits="userSpaceOnUse">
<stop stop-color="#00BCD4"/>
<stop offset="1" stop-color="#EFF400"/>
</linearGradient>
<linearGradient id="paint1_linear_356_6925" x1="141.931" y1="471.5" x2="112.417" y2="653.632" gradientUnits="userSpaceOnUse">
<stop stop-color="#00BCD4"/>
<stop offset="1" stop-color="#2EBD59"/>
</linearGradient>
<linearGradient id="paint2_linear_356_6925" x1="224.897" y1="433.546" x2="74.0715" y2="365.924" gradientUnits="userSpaceOnUse">
<stop stop-color="#00BCD4"/>
<stop offset="1" stop-color="#2EBD59"/>
</linearGradient>
<linearGradient id="paint3_linear_356_6925" x1="65.2993" y1="305.1" x2="-2.8206" y2="266.94" gradientUnits="userSpaceOnUse">
<stop stop-color="#00BCD4"/>
<stop offset="1" stop-color="#4CAF50"/>
</linearGradient>
<linearGradient id="paint4_linear_356_6925" x1="297.431" y1="440" x2="314.197" y2="442.7" gradientUnits="userSpaceOnUse">
<stop stop-color="#00BCD4"/>
<stop offset="1" stop-color="#2EBD59"/>
</linearGradient>
<linearGradient id="paint5_linear_356_6925" x1="63.4307" y1="403" x2="80.1966" y2="405.7" gradientUnits="userSpaceOnUse">
<stop stop-color="#00BCD4"/>
<stop offset="1" stop-color="#2EBD59"/>
</linearGradient>
<linearGradient id="paint6_linear_356_6925" x1="193.431" y1="183" x2="204.608" y2="184.8" gradientUnits="userSpaceOnUse">
<stop stop-color="#00BCD4"/>
<stop offset="1" stop-color="#2EBD59"/>
</linearGradient>
<linearGradient id="paint7_linear_356_6925" x1="1458.33" y1="471.5" x2="1487.85" y2="653.632" gradientUnits="userSpaceOnUse">
<stop stop-color="#00BCD4"/>
<stop offset="1" stop-color="#2EBD59"/>
</linearGradient>
<linearGradient id="paint8_linear_356_6925" x1="1375.37" y1="433.546" x2="1526.19" y2="365.924" gradientUnits="userSpaceOnUse">
<stop stop-color="#00BCD4"/>
<stop offset="1" stop-color="#2EBD59"/>
</linearGradient>
<linearGradient id="paint9_linear_356_6925" x1="1534.97" y1="305.1" x2="1603.09" y2="266.94" gradientUnits="userSpaceOnUse">
<stop stop-color="#00BCD4"/>
<stop offset="1" stop-color="#4CAF50"/>
</linearGradient>
<linearGradient id="paint10_linear_356_6925" x1="0" y1="0" x2="16.7659" y2="2.70012" gradientUnits="userSpaceOnUse">
<stop stop-color="#00BCD4"/>
<stop offset="1" stop-color="#2EBD59"/>
</linearGradient>
<linearGradient id="paint11_linear_356_6925" x1="0" y1="0" x2="16.7659" y2="2.70012" gradientUnits="userSpaceOnUse">
<stop stop-color="#00BCD4"/>
<stop offset="1" stop-color="#2EBD59"/>
</linearGradient>
<linearGradient id="paint12_linear_356_6925" x1="0" y1="0" x2="11.1773" y2="1.80008" gradientUnits="userSpaceOnUse">
<stop stop-color="#00BCD4"/>
<stop offset="1" stop-color="#2EBD59"/>
</linearGradient>
</defs>
</svg>
